<?xml version="1.0" encoding="UTF-8" standalone="no"?>
<!DOCTYPE svg PUBLIC "-//W3C//DTD SVG 1.1//EN" "http://www.w3.org/Graphics/SVG/1.1/DTD/svg11.dtd">
<svg width="100%" height="100%" viewBox="0 0 64 64" version="1.1" xmlns="http://www.w3.org/2000/svg" xmlns:xlink="http://www.w3.org/1999/xlink" xml:space="preserve" xmlns:serif="http://www.serif.com/" style="fill-rule:evenodd;clip-rule:evenodd;stroke-linejoin:round;stroke-miterlimit:2;">
    <g transform="matrix(1,0,0,1,-418,-24)">
        <g id="ArtBoard2" transform="matrix(0.505768,0,0,0.663942,206.277,7.49807)">
            <rect x="418.617" y="24.854" width="126.54" height="96.394" style="fill:none;"/>
            <clipPath id="_clip1">
                <rect x="418.617" y="24.854" width="126.54" height="96.394"/>
            </clipPath>
            <g clip-path="url(#_clip1)">
                <g transform="matrix(1.58735,0,0,1.20919,402.26,12.4845)">
                    <path d="M80.11,49.695C80.113,55.646 81.591,60.466 83.413,60.466C85.236,60.466 86.715,55.642 86.718,49.698C86.715,43.747 85.239,38.925 83.415,38.925C81.591,38.926 80.107,43.748 80.11,49.695Z" style="fill:rgb(250,18,60);"/>
                    <path d="M39.138,14.154C24.063,20.414 13.609,34.084 13.609,49.933C13.605,65.785 24.063,79.453 39.145,85.71C30.504,78.232 24.764,65 24.764,49.934C24.764,34.868 30.508,21.637 39.138,14.154Z" style="fill:rgb(250,18,60);"/>
                    <path d="M49.349,10.23C42.283,10.23 36.546,28.084 36.546,50.087C36.546,72.103 42.282,89.946 49.354,89.948C52.845,89.946 56.014,85.581 58.323,78.51C60.277,83.266 62.737,86.108 65.407,86.108C71.774,86.11 76.939,70.042 76.934,50.225C76.939,30.409 71.778,14.338 65.413,14.346C62.762,14.346 60.32,17.143 58.372,21.83C56.057,14.668 52.871,10.234 49.349,10.23ZM75.225,50.227C75.23,61.348 72.461,70.37 69.051,70.37C65.639,70.37 62.875,61.347 62.875,50.231C62.875,39.104 65.639,30.085 69.051,30.081C72.465,30.084 75.229,39.102 75.225,50.227ZM57.792,23.318C55.397,29.894 53.885,39.509 53.885,50.226C53.884,60.849 55.369,70.392 57.726,76.962C56.576,78.521 55.308,79.386 53.978,79.386C48.776,79.382 44.564,66.269 44.564,50.087C44.564,33.913 48.776,20.794 53.971,20.794C55.333,20.797 56.626,21.701 57.792,23.318Z" style="fill:rgb(250,18,60);"/>
                </g>
            </g>
        </g>
    </g>
</svg>
